<svg xmlns="http://www.w3.org/2000/svg" viewBox="0 0 620 720" role="img" aria-labelledby="title">
  <title id="title">Three secondary school students</title>
  <rect width="620" height="720" fill="#ffffff"/>
  <g fill="none" stroke="#111111" stroke-linecap="round" stroke-linejoin="round">
    <g>
      <path d="M78 167c15-65 86-88 133-42 42 41 43 106 30 174l-32 179H79l-12-176c-5-68 0-105 11-135z" fill="#fff" stroke-width="7"/>
      <path d="M100 146c45-26 100 2 118 68 11 40 11 94 6 138" stroke-width="7"/>
      <circle cx="158" cy="161" r="39" fill="#ffd4b8" stroke-width="7"/>
      <path d="M137 153c5-5 12-5 17 0M166 153c5-5 12-5 17 0M148 178c11 8 25 8 37 0" stroke-width="4"/>
      <circle cx="128" cy="171" r="7" fill="#f26a52" stroke="none"/>
      <circle cx="190" cy="171" r="7" fill="#f26a52" stroke="none"/>
      <path d="M91 301v172c0 27 14 42 37 43M213 303v175c0 25-12 40-35 42" stroke-width="7"/>
      <path d="M83 466h128l13 154H92z" fill="#3f93d2" stroke-width="7"/>
      <path d="M105 620l-53 46M183 621l24 55M52 666c34 1 58-6 72-25M207 676c-26 6-45 0-57-17" stroke-width="7"/>
    </g>

    <g>
      <path d="M279 112c-5-48 33-82 78-67 38 13 55 48 45 86" fill="#7a4b2a" stroke-width="7"/>
      <circle cx="341" cy="123" r="43" fill="#ffd0ad" stroke-width="7"/>
      <path d="M313 114c7-6 15-6 22 0M353 114c7-6 15-6 22 0M330 145c13 8 27 8 40 0" stroke-width="4"/>
      <circle cx="307" cy="133" r="7" fill="#ff8a5b" stroke="none"/>
      <circle cx="379" cy="133" r="7" fill="#ff8a5b" stroke="none"/>
      <path d="M292 182h98l30 254c4 35-15 64-49 64h-67c-33 0-52-29-48-64z" fill="#fff" stroke-width="7"/>
      <path d="M337 187l31 306M304 197l94 292" stroke-width="8"/>
      <path d="M328 186h27l17 78-31 54-31-54z" fill="#702020" stroke-width="6"/>
      <path d="M268 496h148l-8 142c-1 24-19 41-43 41h-49c-24 0-42-17-43-41z" fill="#2f4035" stroke-width="7"/>
      <path d="M263 258l-24 126M423 260l28 122" stroke-width="7"/>
      <path d="M315 678l-51 20M365 678l58 20M264 698c36 10 60 6 73-12M423 698c-32 9-58 3-75-15" stroke-width="7"/>
    </g>

    <g>
      <path d="M464 121c44-32 101 0 103 62 2 55-27 94-70 104" fill="#754119" stroke-width="7"/>
      <circle cx="499" cy="158" r="38" fill="#ffd0ad" stroke-width="7"/>
      <path d="M474 151c5-5 12-5 18 0M511 151c5-5 12-5 18 0M488 177c11 7 24 7 36 0" stroke-width="4"/>
      <circle cx="468" cy="168" r="7" fill="#f26a52" stroke="none"/>
      <circle cx="531" cy="168" r="7" fill="#f26a52" stroke="none"/>
      <path d="M446 211h116l34 287c-26 25-65 39-112 39-38 0-72-12-99-35z" fill="#3f93d2" stroke-width="7"/>
      <path d="M455 211h101l-21-41h-60z" fill="#fff" stroke-width="7"/>
      <path d="M493 210l16 36 16-36" stroke="#243d8f" stroke-width="6"/>
      <path d="M428 284l-32 131M570 287l25 128" stroke-width="7"/>
      <path d="M450 537l-31 103M531 537l38 103" stroke-width="7"/>
      <path d="M419 640c32 6 51 0 61-18M569 640c-22 7-42 3-60-12" stroke-width="7"/>
    </g>
  </g>
</svg>
